<?xml version="1.0" encoding="UTF-8" standalone="no"?>
<svg
   xmlns:dc="http://purl.org/dc/elements/1.1/"
   xmlns:cc="http://creativecommons.org/ns#"
   xmlns:rdf="http://www.w3.org/1999/02/22-rdf-syntax-ns#"
   xmlns:svg="http://www.w3.org/2000/svg"
   xmlns="http://www.w3.org/2000/svg"
   xmlns:sodipodi="http://sodipodi.sourceforge.net/DTD/sodipodi-0.dtd"
   xmlns:inkscape="http://www.inkscape.org/namespaces/inkscape"
   version="1.1"
   viewBox="0 0 20 20"
   xml:space="preserve"
   id="svg4685"
   inkscape:version="0.91 r13725"
   sodipodi:docname="sun2.svg"
   width="20"
   height="20"><metadata
     id="metadata4713"><rdf:RDF><cc:Work
         rdf:about=""><dc:format>image/svg+xml</dc:format><dc:type
           rdf:resource="http://purl.org/dc/dcmitype/StillImage" /><dc:title></dc:title></cc:Work></rdf:RDF></metadata><defs
     id="defs4711" /><sodipodi:namedview
     pagecolor="#ffffff"
     bordercolor="#666666"
     borderopacity="1"
     objecttolerance="10"
     gridtolerance="10"
     guidetolerance="10"
     inkscape:pageopacity="0"
     inkscape:pageshadow="2"
     inkscape:window-width="1156"
     inkscape:window-height="868"
     id="namedview4709"
     showgrid="false"
     showborder="true"
     inkscape:showpageshadow="false"
     inkscape:zoom="9.8333333"
     inkscape:cx="12"
     inkscape:cy="12"
     inkscape:window-x="434"
     inkscape:window-y="116"
     inkscape:window-maximized="0"
     inkscape:current-layer="svg4685" /><style
     type="text/css"
     id="style4687">
	.st0{display:none;}
	.st1{display:inline;}
	.st2{opacity:0.2;fill:none;stroke:#000000;stroke-width:5.000000e-02;stroke-miterlimit:10;}
</style><g
     class="st0"
     id="grid_system"
     style="display:none"
     transform="translate(0,-4)" /><g
     id="_icons"
     transform="matrix(0.97966102,0,0,0.97966102,-1.620339,-1.8237288)"><path
       id="path4707"
       d="m 6.3,4.9 c -0.4,-0.4 -1,-0.4 -1.4,0 -0.4,0.4 -0.4,1 0,1.4 L 6.3,7.7 C 6.5,8 6.8,8.1 7.1,8.1 7.4,8.1 7.6,8 7.8,7.8 8.2,7.4 8.2,6.8 7.8,6.4 L 6.3,4.9 Z M 2,12 c 0,0.6 0.4,1 1,1 l 2,0 C 5.6,13 6,12.6 6,12 6,11.4 5.6,11 5,11 l -2,0 c -0.6,0 -1,0.4 -1,1 z m 2.9,7.1 c 0.2,0.2 0.5,0.3 0.7,0.3 0.2,0 0.5,-0.1 0.7,-0.3 l 1.4,-1.4 c 0.4,-0.4 0.4,-1 0,-1.4 -0.4,-0.4 -1,-0.4 -1.4,0 l -1.4,1.4 c -0.4,0.3 -0.4,1 0,1.4 z M 11,19 l 0,2 c 0,0.6 0.4,1 1,1 0.6,0 1,-0.4 1,-1 l 0,-2 c 0,-0.6 -0.4,-1 -1,-1 -0.6,0 -1,0.4 -1,1 z m 6.7,-2.8 c -0.4,-0.4 -1,-0.4 -1.4,0 -0.4,0.4 -0.4,1 0,1.4 l 1.4,1.4 c 0.2,0.2 0.5,0.3 0.7,0.3 0.2,0 0.5,-0.1 0.7,-0.3 0.4,-0.4 0.4,-1 0,-1.4 L 17.7,16.2 Z M 21,11 19,11 c -0.6,0 -1,0.4 -1,1 0,0.6 0.4,1 1,1 l 2,0 c 0.6,0 1,-0.4 1,-1 0,-0.6 -0.4,-1 -1,-1 z M 19.1,4.9 c -0.4,-0.4 -1,-0.4 -1.4,0 l -1.4,1.4 c -0.4,0.4 -0.4,1 0,1.4 0.2,0.2 0.5,0.3 0.7,0.3 0.2,0 0.5,-0.1 0.7,-0.3 l 1.4,-1.4 c 0.4,-0.3 0.4,-1 0,-1.4 z M 13,5 13,3 C 13,2.4 12.6,2 12,2 11.4,2 11,2.4 11,3 l 0,2 c 0,0.6 0.4,1 1,1 0.6,0 1,-0.4 1,-1 z m -6,7 c 0,2.8 2.2,5 5,5 2.8,0 5,-2.2 5,-5 C 17,9.2 14.8,7 12,7 9.2,7 7,9.2 7,12 Z m 5,-3 c 1.7,0 3,1.3 3,3 0,1.7 -1.3,3 -3,3 -1.7,0 -3,-1.3 -3,-3 0,-1.7 1.3,-3 3,-3 z"
       inkscape:connector-curvature="0" /></g></svg>